<svg width="369" height="52" viewBox="0 0 369 52" fill="none" xmlns="http://www.w3.org/2000/svg">
<path d="M9.47916 45.5L6.44583 42.4667L28.6542 20.2583C28.0042 18.7417 27.9139 17.0264 28.3833 15.1125C28.8528 13.1986 29.8819 11.4833 31.4708 9.96667C33.3847 8.05278 35.5153 6.93333 37.8625 6.60833C40.2097 6.28333 42.1236 6.86111 43.6042 8.34167C45.0847 9.82222 45.6625 11.7361 45.3375 14.0833C45.0125 16.4306 43.8931 18.5611 41.9792 20.475C40.4625 22.0639 38.7472 23.0931 36.8333 23.5625C34.9194 24.0319 33.2042 23.9417 31.6875 23.2917L28.9792 26L45.4458 42.4667L42.4125 45.5L25.9458 29.1417L9.47916 45.5ZM15.8708 26.975L9.37083 20.475C7.42083 18.525 6.44583 16.1958 6.44583 13.4875C6.44583 10.7792 7.42083 8.45 9.37083 6.5L22.8042 20.0417L15.8708 26.975Z" fill="white"/>
<path d="M80.3828 29.5547H71.5938V24.4922H80.3828C81.8203 24.4922 82.9844 24.2578 83.875 23.7891C84.7812 23.3047 85.4453 22.6484 85.8672 21.8203C86.2891 20.9766 86.5 20.0156 86.5 18.9375C86.5 17.8906 86.2891 16.9141 85.8672 16.0078C85.4453 15.1016 84.7812 14.3672 83.875 13.8047C82.9844 13.2422 81.8203 12.9609 80.3828 12.9609H73.7031V42H67.2578V7.875H80.3828C83.0391 7.875 85.3047 8.35156 87.1797 9.30469C89.0703 10.2422 90.5078 11.5469 91.4922 13.2188C92.4922 14.875 92.9922 16.7656 92.9922 18.8906C92.9922 21.0938 92.4922 22.9922 91.4922 24.5859C90.5078 26.1797 89.0703 27.4062 87.1797 28.2656C85.3047 29.125 83.0391 29.5547 80.3828 29.5547ZM108.648 42.4688C106.727 42.4688 105 42.1562 103.469 41.5312C101.938 40.9062 100.633 40.0391 99.5547 38.9297C98.4922 37.8047 97.6719 36.5 97.0938 35.0156C96.5312 33.5156 96.25 31.9062 96.25 30.1875V29.25C96.25 27.2969 96.5312 25.5234 97.0938 23.9297C97.6562 22.3203 98.4531 20.9375 99.4844 19.7812C100.516 18.625 101.75 17.7344 103.188 17.1094C104.625 16.4844 106.211 16.1719 107.945 16.1719C109.742 16.1719 111.328 16.4766 112.703 17.0859C114.078 17.6797 115.227 18.5234 116.148 19.6172C117.07 20.7109 117.766 22.0234 118.234 23.5547C118.703 25.0703 118.938 26.75 118.938 28.5938V31.1953H99.0625V26.9297H112.844V26.4609C112.812 25.4766 112.625 24.5781 112.281 23.7656C111.938 22.9375 111.406 22.2812 110.688 21.7969C109.969 21.2969 109.039 21.0469 107.898 21.0469C106.977 21.0469 106.172 21.25 105.484 21.6562C104.812 22.0469 104.25 22.6094 103.797 23.3438C103.359 24.0625 103.031 24.9219 102.812 25.9219C102.594 26.9219 102.484 28.0312 102.484 29.25V30.1875C102.484 31.25 102.625 32.2344 102.906 33.1406C103.203 34.0469 103.633 34.8359 104.195 35.5078C104.773 36.1641 105.461 36.6797 106.258 37.0547C107.07 37.4141 107.992 37.5938 109.023 37.5938C110.32 37.5938 111.492 37.3438 112.539 36.8438C113.602 36.3281 114.523 35.5703 115.305 34.5703L118.422 37.8047C117.891 38.5859 117.172 39.3359 116.266 40.0547C115.375 40.7734 114.297 41.3594 113.031 41.8125C111.766 42.25 110.305 42.4688 108.648 42.4688ZM129.273 21.8203V42H123.086V16.6406H128.945L129.273 21.8203ZM136.984 16.4766L136.891 22.2422C136.547 22.1797 136.156 22.1328 135.719 22.1016C135.297 22.0703 134.898 22.0547 134.523 22.0547C133.57 22.0547 132.734 22.1875 132.016 22.4531C131.297 22.7031 130.695 23.0703 130.211 23.5547C129.742 24.0391 129.383 24.6328 129.133 25.3359C128.883 26.0234 128.742 26.8047 128.711 27.6797L127.375 27.5156C127.375 25.9062 127.539 24.4141 127.867 23.0391C128.195 21.6641 128.672 20.4609 129.297 19.4297C129.922 18.3984 130.703 17.6016 131.641 17.0391C132.594 16.4609 133.688 16.1719 134.922 16.1719C135.266 16.1719 135.633 16.2031 136.023 16.2656C136.43 16.3125 136.75 16.3828 136.984 16.4766ZM148.914 42H142.68V14.2969C142.68 12.3906 143.047 10.7891 143.781 9.49219C144.516 8.17969 145.562 7.1875 146.922 6.51562C148.281 5.84375 149.883 5.50781 151.727 5.50781C152.336 5.50781 152.914 5.54688 153.461 5.625C154.023 5.70312 154.578 5.8125 155.125 5.95312L155.008 10.6641C154.711 10.5859 154.383 10.5312 154.023 10.5C153.68 10.4688 153.297 10.4531 152.875 10.4531C152.031 10.4531 151.312 10.6016 150.719 10.8984C150.125 11.1953 149.672 11.6328 149.359 12.2109C149.062 12.7734 148.914 13.4688 148.914 14.2969V42ZM154.047 16.6406V21.0938H138.859V16.6406H154.047ZM168.695 42.4688C166.773 42.4688 165.047 42.1562 163.516 41.5312C161.984 40.9062 160.68 40.0391 159.602 38.9297C158.539 37.8047 157.719 36.5 157.141 35.0156C156.578 33.5156 156.297 31.9062 156.297 30.1875V29.25C156.297 27.2969 156.578 25.5234 157.141 23.9297C157.703 22.3203 158.5 20.9375 159.531 19.7812C160.562 18.625 161.797 17.7344 163.234 17.1094C164.672 16.4844 166.258 16.1719 167.992 16.1719C169.789 16.1719 171.375 16.4766 172.75 17.0859C174.125 17.6797 175.273 18.5234 176.195 19.6172C177.117 20.7109 177.812 22.0234 178.281 23.5547C178.75 25.0703 178.984 26.75 178.984 28.5938V31.1953H159.109V26.9297H172.891V26.4609C172.859 25.4766 172.672 24.5781 172.328 23.7656C171.984 22.9375 171.453 22.2812 170.734 21.7969C170.016 21.2969 169.086 21.0469 167.945 21.0469C167.023 21.0469 166.219 21.25 165.531 21.6562C164.859 22.0469 164.297 22.6094 163.844 23.3438C163.406 24.0625 163.078 24.9219 162.859 25.9219C162.641 26.9219 162.531 28.0312 162.531 29.25V30.1875C162.531 31.25 162.672 32.2344 162.953 33.1406C163.25 34.0469 163.68 34.8359 164.242 35.5078C164.82 36.1641 165.508 36.6797 166.305 37.0547C167.117 37.4141 168.039 37.5938 169.07 37.5938C170.367 37.5938 171.539 37.3438 172.586 36.8438C173.648 36.3281 174.57 35.5703 175.352 34.5703L178.469 37.8047C177.938 38.5859 177.219 39.3359 176.312 40.0547C175.422 40.7734 174.344 41.3594 173.078 41.8125C171.812 42.25 170.352 42.4688 168.695 42.4688ZM193.539 37.5938C194.414 37.5938 195.195 37.4219 195.883 37.0781C196.57 36.7344 197.117 36.25 197.523 35.625C197.945 35 198.172 34.2734 198.203 33.4453H204.039C204.008 35.1641 203.523 36.7031 202.586 38.0625C201.648 39.4219 200.398 40.5 198.836 41.2969C197.289 42.0781 195.555 42.4688 193.633 42.4688C191.68 42.4688 189.977 42.1406 188.523 41.4844C187.07 40.8281 185.859 39.9141 184.891 38.7422C183.938 37.5703 183.219 36.2109 182.734 34.6641C182.266 33.1172 182.031 31.4609 182.031 29.6953V28.9453C182.031 27.1797 182.266 25.5234 182.734 23.9766C183.219 22.4297 183.938 21.0703 184.891 19.8984C185.859 18.7266 187.07 17.8125 188.523 17.1562C189.977 16.5 191.672 16.1719 193.609 16.1719C195.656 16.1719 197.453 16.5703 199 17.3672C200.562 18.1641 201.781 19.2891 202.656 20.7422C203.547 22.1953 204.008 23.9062 204.039 25.875H198.203C198.172 24.9688 197.969 24.1562 197.594 23.4375C197.219 22.7188 196.688 22.1406 196 21.7031C195.312 21.2656 194.477 21.0469 193.492 21.0469C192.445 21.0469 191.57 21.2656 190.867 21.7031C190.18 22.1406 189.641 22.7422 189.25 23.5078C188.875 24.2578 188.609 25.1016 188.453 26.0391C188.312 26.9609 188.242 27.9297 188.242 28.9453V29.6953C188.242 30.7266 188.312 31.7109 188.453 32.6484C188.609 33.5859 188.875 34.4297 189.25 35.1797C189.641 35.9141 190.18 36.5 190.867 36.9375C191.57 37.375 192.461 37.5938 193.539 37.5938ZM220.164 16.6406V21.0938H205.633V16.6406H220.164ZM209.523 10.4062H215.734V34.6875C215.734 35.4375 215.836 36.0156 216.039 36.4219C216.242 36.8281 216.547 37.1016 216.953 37.2422C217.359 37.3828 217.844 37.4531 218.406 37.4531C218.812 37.4531 219.188 37.4297 219.531 37.3828C219.875 37.3359 220.164 37.2891 220.398 37.2422L220.422 41.8828C219.906 42.0547 219.32 42.1953 218.664 42.3047C218.023 42.4141 217.297 42.4688 216.484 42.4688C215.094 42.4688 213.875 42.2344 212.828 41.7656C211.781 41.2812 210.969 40.5078 210.391 39.4453C209.812 38.3672 209.523 36.9453 209.523 35.1797V10.4062Z" fill="white"/>
<path d="M224.758 7.875H237.156C239.75 7.875 241.977 8.26563 243.836 9.04688C245.695 9.82812 247.125 10.9844 248.125 12.5156C249.125 14.0469 249.625 15.9297 249.625 18.1641C249.625 19.9297 249.312 21.4609 248.688 22.7578C248.062 24.0547 247.18 25.1406 246.039 26.0156C244.914 26.8906 243.586 27.5781 242.055 28.0781L240.039 29.1094H229.094L229.047 24.0234H237.227C238.555 24.0234 239.656 23.7891 240.531 23.3203C241.406 22.8516 242.062 22.2031 242.5 21.375C242.953 20.5469 243.18 19.6016 243.18 18.5391C243.18 17.3984 242.961 16.4141 242.523 15.5859C242.086 14.7422 241.422 14.0937 240.531 13.6406C239.641 13.1875 238.516 12.9609 237.156 12.9609H231.203V42H224.758V7.875ZM244.023 42L236.125 26.7188L242.945 26.6953L250.938 41.6719V42H244.023ZM266.195 42.4688C264.273 42.4688 262.547 42.1562 261.016 41.5312C259.484 40.9062 258.18 40.0391 257.102 38.9297C256.039 37.8047 255.219 36.5 254.641 35.0156C254.078 33.5156 253.797 31.9062 253.797 30.1875V29.25C253.797 27.2969 254.078 25.5234 254.641 23.9297C255.203 22.3203 256 20.9375 257.031 19.7812C258.062 18.625 259.297 17.7344 260.734 17.1094C262.172 16.4844 263.758 16.1719 265.492 16.1719C267.289 16.1719 268.875 16.4766 270.25 17.0859C271.625 17.6797 272.773 18.5234 273.695 19.6172C274.617 20.7109 275.312 22.0234 275.781 23.5547C276.25 25.0703 276.484 26.75 276.484 28.5938V31.1953H256.609V26.9297H270.391V26.4609C270.359 25.4766 270.172 24.5781 269.828 23.7656C269.484 22.9375 268.953 22.2812 268.234 21.7969C267.516 21.2969 266.586 21.0469 265.445 21.0469C264.523 21.0469 263.719 21.25 263.031 21.6562C262.359 22.0469 261.797 22.6094 261.344 23.3438C260.906 24.0625 260.578 24.9219 260.359 25.9219C260.141 26.9219 260.031 28.0312 260.031 29.25V30.1875C260.031 31.25 260.172 32.2344 260.453 33.1406C260.75 34.0469 261.18 34.8359 261.742 35.5078C262.32 36.1641 263.008 36.6797 263.805 37.0547C264.617 37.4141 265.539 37.5938 266.57 37.5938C267.867 37.5938 269.039 37.3438 270.086 36.8438C271.148 36.3281 272.07 35.5703 272.852 34.5703L275.969 37.8047C275.438 38.5859 274.719 39.3359 273.812 40.0547C272.922 40.7734 271.844 41.3594 270.578 41.8125C269.312 42.25 267.852 42.4688 266.195 42.4688ZM291.039 37.5938C291.914 37.5938 292.695 37.4219 293.383 37.0781C294.07 36.7344 294.617 36.25 295.023 35.625C295.445 35 295.672 34.2734 295.703 33.4453H301.539C301.508 35.1641 301.023 36.7031 300.086 38.0625C299.148 39.4219 297.898 40.5 296.336 41.2969C294.789 42.0781 293.055 42.4688 291.133 42.4688C289.18 42.4688 287.477 42.1406 286.023 41.4844C284.57 40.8281 283.359 39.9141 282.391 38.7422C281.438 37.5703 280.719 36.2109 280.234 34.6641C279.766 33.1172 279.531 31.4609 279.531 29.6953V28.9453C279.531 27.1797 279.766 25.5234 280.234 23.9766C280.719 22.4297 281.438 21.0703 282.391 19.8984C283.359 18.7266 284.57 17.8125 286.023 17.1562C287.477 16.5 289.172 16.1719 291.109 16.1719C293.156 16.1719 294.953 16.5703 296.5 17.3672C298.062 18.1641 299.281 19.2891 300.156 20.7422C301.047 22.1953 301.508 23.9062 301.539 25.875H295.703C295.672 24.9688 295.469 24.1562 295.094 23.4375C294.719 22.7188 294.188 22.1406 293.5 21.7031C292.812 21.2656 291.977 21.0469 290.992 21.0469C289.945 21.0469 289.07 21.2656 288.367 21.7031C287.68 22.1406 287.141 22.7422 286.75 23.5078C286.375 24.2578 286.109 25.1016 285.953 26.0391C285.812 26.9609 285.742 27.9297 285.742 28.9453V29.6953C285.742 30.7266 285.812 31.7109 285.953 32.6484C286.109 33.5859 286.375 34.4297 286.75 35.1797C287.141 35.9141 287.68 36.5 288.367 36.9375C289.07 37.375 289.961 37.5938 291.039 37.5938ZM312.227 16.6406V42H306.016V16.6406H312.227ZM305.594 10.0078C305.594 9.08594 305.906 8.32031 306.531 7.71094C307.172 7.10156 308.031 6.79688 309.109 6.79688C310.188 6.79688 311.039 7.10156 311.664 7.71094C312.305 8.32031 312.625 9.08594 312.625 10.0078C312.625 10.9141 312.305 11.6719 311.664 12.2812C311.039 12.8906 310.188 13.1953 309.109 13.1953C308.031 13.1953 307.172 12.8906 306.531 12.2812C305.906 11.6719 305.594 10.9141 305.594 10.0078ZM324.32 21.5156V51.75H318.109V16.6406H323.852L324.32 21.5156ZM340.609 29.0625V29.5547C340.609 31.3984 340.391 33.1094 339.953 34.6875C339.531 36.25 338.906 37.6172 338.078 38.7891C337.25 39.9453 336.219 40.8516 334.984 41.5078C333.766 42.1484 332.359 42.4688 330.766 42.4688C329.203 42.4688 327.844 42.1719 326.688 41.5781C325.531 40.9688 324.555 40.1094 323.758 39C322.961 37.8906 322.32 36.6016 321.836 35.1328C321.367 33.6484 321.016 32.0312 320.781 30.2812V28.7109C321.016 26.8516 321.367 25.1641 321.836 23.6484C322.32 22.1172 322.961 20.7969 323.758 19.6875C324.555 18.5625 325.523 17.6953 326.664 17.0859C327.82 16.4766 329.172 16.1719 330.719 16.1719C332.328 16.1719 333.742 16.4766 334.961 17.0859C336.195 17.6953 337.234 18.5703 338.078 19.7109C338.922 20.8516 339.555 22.2109 339.977 23.7891C340.398 25.3672 340.609 27.125 340.609 29.0625ZM334.398 29.5547V29.0625C334.398 27.9375 334.297 26.8984 334.094 25.9453C333.891 24.9766 333.578 24.1328 333.156 23.4141C332.734 22.6797 332.188 22.1094 331.516 21.7031C330.844 21.2969 330.031 21.0938 329.078 21.0938C328.125 21.0938 327.305 21.25 326.617 21.5625C325.93 21.875 325.367 22.3203 324.93 22.8984C324.492 23.4766 324.148 24.1641 323.898 24.9609C323.664 25.7422 323.508 26.6094 323.43 27.5625V31.4531C323.57 32.6094 323.844 33.6484 324.25 34.5703C324.656 35.4922 325.25 36.2266 326.031 36.7734C326.828 37.3203 327.859 37.5938 329.125 37.5938C330.078 37.5938 330.891 37.3828 331.562 36.9609C332.234 36.5391 332.781 35.9609 333.203 35.2266C333.625 34.4766 333.93 33.6172 334.117 32.6484C334.305 31.6797 334.398 30.6484 334.398 29.5547ZM356.523 42.4688C354.602 42.4688 352.875 42.1562 351.344 41.5312C349.812 40.9062 348.508 40.0391 347.43 38.9297C346.367 37.8047 345.547 36.5 344.969 35.0156C344.406 33.5156 344.125 31.9062 344.125 30.1875V29.25C344.125 27.2969 344.406 25.5234 344.969 23.9297C345.531 22.3203 346.328 20.9375 347.359 19.7812C348.391 18.625 349.625 17.7344 351.062 17.1094C352.5 16.4844 354.086 16.1719 355.82 16.1719C357.617 16.1719 359.203 16.4766 360.578 17.0859C361.953 17.6797 363.102 18.5234 364.023 19.6172C364.945 20.7109 365.641 22.0234 366.109 23.5547C366.578 25.0703 366.812 26.75 366.812 28.5938V31.1953H346.938V26.9297H360.719V26.4609C360.688 25.4766 360.5 24.5781 360.156 23.7656C359.812 22.9375 359.281 22.2812 358.562 21.7969C357.844 21.2969 356.914 21.0469 355.773 21.0469C354.852 21.0469 354.047 21.25 353.359 21.6562C352.688 22.0469 352.125 22.6094 351.672 23.3438C351.234 24.0625 350.906 24.9219 350.688 25.9219C350.469 26.9219 350.359 28.0312 350.359 29.25V30.1875C350.359 31.25 350.5 32.2344 350.781 33.1406C351.078 34.0469 351.508 34.8359 352.07 35.5078C352.648 36.1641 353.336 36.6797 354.133 37.0547C354.945 37.4141 355.867 37.5938 356.898 37.5938C358.195 37.5938 359.367 37.3438 360.414 36.8438C361.477 36.3281 362.398 35.5703 363.18 34.5703L366.297 37.8047C365.766 38.5859 365.047 39.3359 364.141 40.0547C363.25 40.7734 362.172 41.3594 360.906 41.8125C359.641 42.25 358.18 42.4688 356.523 42.4688Z" fill="#EE9B8E"/>
</svg>
